<svg width="40" height="60" viewBox="0 0 40 60" fill="none" xmlns="http://www.w3.org/2000/svg">
<g id="Group">
<path id="Vector" d="M24 11H16V60H24V11Z" fill="#6D4534"/>
<path id="Vector_2" d="M1.5201 10.0563C0.618949 10.0563 -0.127111 9.32167 0.0181828 8.43031C0.405444 6.07688 1.61591 3.93746 3.43379 2.39346C5.25167 0.849463 7.5588 0.00123665 9.94388 1.72252e-06C15.4944 1.72252e-06 20.0002 4.48942 20.0002 10.0563H1.5201ZM20.0002 10.0563H38.4802C39.3814 10.0563 40.1258 9.32167 39.9822 8.43031C39.5974 6.07575 38.3876 3.93482 36.5692 2.39036C34.7508 0.845892 32.4423 -0.00139437 30.0565 1.72252e-06C24.5059 1.72252e-06 20.0002 4.50574 20.0002 10.0563Z" fill="#86D72F"/>
<path id="Vector_3" d="M18.8836 9.18128C19.5578 9.61063 20.441 9.61063 21.1152 9.18128C23.0445 7.95342 25.3352 7.42101 27.6083 7.67216C29.8814 7.92331 32.0006 8.94295 33.6154 10.5624C35.2978 12.2511 36.3271 14.4815 36.5205 16.8574C36.7138 19.2332 36.0588 21.6007 34.6716 23.5393C34.1459 24.2706 33.0979 24.2641 32.4612 23.6274L21.1544 12.3206C20.8482 12.0146 20.4331 11.8426 20.0002 11.8426C19.5673 11.8426 19.1521 12.0146 18.846 12.3206L7.53921 23.6274C6.90252 24.2641 5.85445 24.2706 5.32715 23.5393C3.93287 21.6033 3.27358 19.234 3.46743 16.8561C3.66128 14.4782 4.69559 12.247 6.38502 10.5624C8.00353 8.94997 10.1218 7.93514 12.3926 7.68421C14.6634 7.43328 16.952 7.96114 18.8836 9.18128Z" fill="#44911B"/>
<path id="Vector_4" d="M18.7431 16.2109C18.7431 17.1461 18.3716 18.043 17.7103 18.7043C17.049 19.3656 16.1521 19.7371 15.2169 19.7371C14.2817 19.7371 13.3848 19.3656 12.7235 18.7043C12.0622 18.043 11.6907 17.1461 11.6907 16.2109C11.6907 15.2756 12.0622 14.3787 12.7235 13.7174C13.3848 13.0561 14.2817 12.6846 15.2169 12.6846C16.1521 12.6846 17.049 13.0561 17.7103 13.7174C18.3716 14.3787 18.7431 15.2756 18.7431 16.2109ZM28.3097 19.1004C28.3097 20.0356 27.9382 20.9325 27.2769 21.5938C26.6156 22.2551 25.7186 22.6266 24.7834 22.6266C23.8482 22.6266 22.9513 22.2551 22.29 21.5938C21.6287 20.9325 21.2572 20.0356 21.2572 19.1004C21.2572 18.1652 21.6287 17.2683 22.29 16.607C22.9513 15.9457 23.8482 15.5742 24.7834 15.5742C25.7186 15.5742 26.6156 15.9457 27.2769 16.607C27.9382 17.2683 28.3097 18.1652 28.3097 19.1004Z" fill="#D3883E"/>
</g>
</svg>
