<svg width="40" height="60" viewBox="0 0 40 60" fill="none" xmlns="http://www.w3.org/2000/svg">
<g id="Group 29">
<path id="Vector" d="M35.206 36.4381C34.8488 36.4295 34.5065 36.6624 34.3827 36.9986L32.7463 41.4389C32.5541 41.9604 31.8847 42.1727 31.4846 41.8406C29.2842 40.0141 27.3663 34.3878 26.1562 30.7075C24.7135 26.3199 24.0372 22.865 24.0002 20.7555C23.9925 20.3176 24.2004 19.9475 24.5253 19.8197L28.9539 18.0788L31.6258 17.0284C31.9971 16.8825 32.3417 17.3224 32.3382 17.8056C32.3255 19.5794 35.0476 31.1 39.7972 35.2542C40.2912 35.6862 39.813 36.549 39.1128 36.5321L35.206 36.4381Z" fill="#D32A2A"/>
<path id="Vector_2" d="M28.0394 20C27.6456 20 27.2764 19.6833 27.1355 19.1746L25.0569 11.6689C24.8774 11.0208 25.1367 10.3067 25.6358 10.0737C26.1349 9.84113 26.685 10.1771 26.8645 10.8252L28.9431 18.331C29.1226 18.9791 28.8633 19.6932 28.3642 19.9262C28.26 19.9749 28.1502 19.9999 28.0394 20Z" fill="#3A3831"/>
<path id="Vector_3" d="M5.01555 21.8584L5.02258 21.8037C5.02675 21.7668 5.03443 21.715 5.04535 21.65C5.07507 21.4732 5.11245 21.2985 5.15734 21.1268L5.20084 20.9618L5.25314 20.7911C5.28794 20.6689 5.3332 20.5547 5.37846 20.4251C5.47156 20.1726 5.58855 19.9158 5.72692 19.6609C6.00329 19.1506 6.37342 18.6678 6.82777 18.2871C7.05351 18.0934 7.30516 17.9366 7.56385 17.7843C7.82365 17.6347 8.08975 17.4878 8.36371 17.3595C8.90592 17.0986 9.46406 16.8935 10.0327 16.7459C10.5524 16.6101 11.08 16.5273 11.6103 16.4985C11.7307 16.4921 11.8476 16.4894 11.9595 16.4886L12.281 16.4954L12.5696 16.5152L12.8195 16.5435C12.9722 16.5651 13.0948 16.5882 13.1797 16.6069L13.3117 16.64C13.4083 16.6642 13.4994 16.715 13.5785 16.7889C13.6575 16.8628 13.7226 16.9578 13.7688 17.0671C13.8151 17.1764 13.8415 17.2973 13.8461 17.421C13.8506 17.5447 13.8333 17.6681 13.7953 17.7823L13.7433 17.9383C13.7083 18.0372 13.655 18.1779 13.5839 18.3492L13.463 18.6254L13.3148 18.9372L13.1396 19.2761C13.0741 19.397 13.0069 19.5165 12.938 19.6344C12.6227 20.1711 12.2733 20.6748 11.8932 21.1406C11.4781 21.6508 11.0309 22.1179 10.5558 22.5373C10.318 22.7511 10.0724 22.9464 9.82848 23.1337C9.58348 23.3183 9.33942 23.4931 9.08545 23.6201C8.58038 23.881 8.05495 23.997 7.56385 23.9999C7.3184 24.0018 7.08359 23.9801 6.86488 23.936C6.75419 23.9108 6.65349 23.8941 6.55343 23.8622L6.41164 23.8213L6.27836 23.7744C6.14002 23.7253 6.00392 23.6667 5.87066 23.5989C5.82161 23.5739 5.78329 23.553 5.75645 23.5367L5.71646 23.5134C5.2026 23.2154 4.92994 22.5278 5.01555 21.8584ZM30.5962 5.92204L30.6127 5.97334C30.6233 6.00823 30.6399 6.05651 30.662 6.117C30.7222 6.28112 30.7895 6.44096 30.8636 6.5958L30.9352 6.74459L31.0162 6.89639C31.0718 7.00586 31.1361 7.10462 31.203 7.21827C31.3384 7.43848 31.4978 7.65636 31.6777 7.86622C32.0374 8.28674 32.4835 8.65422 32.9938 8.89862C33.2481 9.02449 33.5211 9.1072 33.8003 9.18339C34.0801 9.25679 34.3654 9.32577 34.6552 9.3744C35.2299 9.47742 35.8104 9.52177 36.3908 9.50701C36.9215 9.49451 37.4506 9.42799 37.9728 9.30809C38.0873 9.28146 38.2013 9.25222 38.3149 9.22038L38.6272 9.12406L38.905 9.02425L39.1436 8.92689C39.2583 8.87714 39.3717 8.82302 39.4837 8.76461L39.6065 8.69563C39.6964 8.64507 39.7763 8.57003 39.8403 8.47594C39.9044 8.38185 39.951 8.27105 39.9768 8.15156C40.0026 8.03207 40.0069 7.90686 39.9896 7.78499C39.9722 7.66312 39.9334 7.54762 39.8762 7.44685L39.798 7.30924C39.7249 7.18767 39.6488 7.06892 39.5699 6.95316L39.4032 6.71748L39.2037 6.45482L38.9731 6.17319C38.8911 6.07757 38.8044 5.97892 38.7132 5.88004C38.311 5.44464 37.8813 5.05098 37.4284 4.70293C36.9336 4.32125 36.415 3.99057 35.8778 3.71414C35.6081 3.57199 35.3342 3.45008 35.0634 3.33561C34.7919 3.22394 34.523 3.1218 34.253 3.06864C33.7144 2.95522 33.1816 2.98861 32.7022 3.12285C32.4626 3.18951 32.2374 3.27617 32.0319 3.38017C31.9285 3.43565 31.8332 3.47998 31.7413 3.53907L31.6103 3.61852L31.4887 3.70146C31.3625 3.78792 31.2401 3.88307 31.1222 3.98646C31.0788 4.0245 31.0451 4.05568 31.0219 4.07895L30.987 4.1128C30.5601 4.52669 30.3844 5.26246 30.5962 5.92204Z" fill="#B1E87E"/>
<path id="Vector_4" d="M9.99193 2.24026L9.81338 2.83574L9.59888 3.55093L9.53405 3.76916L9.47205 3.9962L9.33607 4.49376C9.14053 5.18608 8.91999 6.0678 8.67746 7.07376C8.56347 7.58133 8.43182 8.11606 8.31169 8.6889L8.12607 9.56931L8.0299 10.0252L7.93922 10.4946C7.81682 11.127 7.68668 11.7846 7.56938 12.4722C7.50937 12.8155 7.44519 13.1633 7.38565 13.5186L7.20984 14.6023L7.12019 15.1555L7.03667 15.7186L6.86643 16.8648L6.70647 18.0405C6.65174 18.4359 6.59852 18.8358 6.5502 19.2407L6.39883 20.4634L6.25832 21.7073L6.18773 22.3351L6.12299 22.9681L5.99333 24.2432C5.83092 25.9536 5.68219 27.6944 5.55678 29.4397C5.4341 31.1855 5.3218 32.933 5.23677 34.6572C5.18912 35.5185 5.15543 36.3751 5.11588 37.2201C5.08352 38.0663 5.0469 38.9015 5.0217 39.7245C4.96338 41.3693 4.92639 42.9614 4.89384 44.4711C4.86609 45.9814 4.84429 47.4097 4.83485 48.7289C4.82431 49.9292 4.81931 51.1295 4.81985 52.3299C4.82013 53.4023 4.82315 54.3373 4.82872 55.1076L4.8492 57.5287L4.84929 57.5446C4.86062 58.8862 4.00818 59.9856 2.94521 59.9999C1.88233 60.0142 1.0114 58.9382 1.00008 57.5964C0.999889 57.5776 1.00008 57.5474 1.00027 57.5287L1.03367 55.0781C1.04519 54.2983 1.06302 53.3511 1.08671 52.2646C1.11068 51.1781 1.14059 49.9523 1.18249 48.6147C1.22166 47.2773 1.27573 45.8283 1.33773 44.2959C1.40464 42.7634 1.47796 41.1476 1.57422 39.4763C1.61838 38.6407 1.67434 37.7914 1.72634 36.9317C1.78551 36.0721 1.83921 35.202 1.90706 34.3255C2.03247 32.5721 2.1863 30.7921 2.35106 29.0136C2.51857 27.2352 2.71004 25.4587 2.9152 23.7122L3.07695 22.4089L3.15773 21.7621L3.24445 21.1196L3.41706 19.8469L3.60051 18.5943C3.65954 18.1832 3.7223 17.7729 3.78877 17.3636L3.98053 16.1576L4.18239 14.9797L4.28157 14.4014L4.38689 13.8318L4.59374 12.7163C4.66357 12.3504 4.73813 11.991 4.80834 11.6372C4.94583 10.9289 5.09635 10.2483 5.23828 9.59468L5.3435 9.10963L5.45439 8.63696L5.66851 7.72463C5.80723 7.13142 5.95766 6.57346 6.08892 6.04684C6.15376 5.78334 6.22481 5.53045 6.29219 5.28614L6.48669 4.58012C6.60673 4.12925 6.73752 3.70841 6.84954 3.33068L7.01006 2.79452L7.08329 2.55009L7.15359 2.33222L7.38376 1.62477L7.57542 1.03585C7.84806 0.198082 8.60706 -0.202039 9.27067 0.142096C9.92257 0.480037 10.2399 1.41036 9.99278 2.23716L9.99193 2.24026ZM39.9952 1.50017C39.9341 0.597846 39.305 -0.0711275 38.5902 0.00606175L37.9644 0.0733641L37.6231 0.110053C37.4947 0.125896 37.3417 0.15377 37.1833 0.178427C36.8641 0.231197 36.4912 0.284086 36.0969 0.3795L35.4664 0.520299L34.779 0.711724C34.5389 0.77319 34.293 0.859313 34.0372 0.946389C33.7816 1.0337 33.5154 1.11816 33.2461 1.23251C32.0275 1.70306 30.845 2.31149 29.713 3.05039C28.4683 3.86219 27.1821 4.89817 25.9345 6.16405L25.4714 6.65279L25.2383 6.90068L25.011 7.15977L24.5531 7.68389L24.106 8.23363L23.8813 8.51177L23.6633 8.79992L23.2251 9.38217C22.9443 9.78492 22.6504 10.1824 22.3792 10.6066C21.2654 12.2781 20.2552 14.1317 19.3403 16.0832C18.889 17.063 18.4569 18.0648 18.0533 19.0868C17.6551 20.1111 17.2678 21.1471 16.9196 22.2001C16.5669 23.2511 16.2347 24.3115 15.9312 25.3776C15.6226 26.4421 15.3418 27.5119 15.0789 28.578C14.813 29.6434 14.5784 30.7089 14.3518 31.7631C14.1332 32.8192 13.9253 33.8649 13.7419 34.8981C13.3683 36.9632 13.0704 38.9729 12.8204 40.8838C12.59 42.6786 12.3936 44.4801 12.2314 46.2867C11.9897 48.991 11.8235 51.7052 11.7333 54.4242C11.6999 55.4098 11.6874 56.1866 11.6776 56.7161L11.6678 57.5291C11.6677 57.5431 11.6675 57.5694 11.6676 57.5834C11.6752 58.9251 12.5429 60.005 13.6059 59.9956C14.6688 59.986 15.5243 58.8907 15.5168 57.549L15.5167 57.5287L15.5123 56.7564C15.5127 56.2521 15.5115 55.5123 15.5268 54.569C15.5671 51.9597 15.6803 49.3529 15.8661 46.7537C15.9909 45.0174 16.1485 43.2851 16.3389 41.5583C16.5459 39.7226 16.7966 37.7929 17.1176 35.8163C17.2749 34.8268 17.455 33.8277 17.6446 32.819C17.842 31.8136 18.0461 30.797 18.2794 29.7844C18.5099 28.7707 18.7565 27.7551 19.0285 26.7482C19.2957 25.7387 19.589 24.7385 19.9002 23.7495C20.2074 22.7576 20.5499 21.7882 20.9011 20.8299C21.2572 19.875 21.6384 18.9432 22.0354 18.034C22.8407 16.2262 23.7263 14.5222 24.6958 13.0002C24.9319 12.6121 25.1874 12.2534 25.431 11.8859L25.8109 11.3584L25.9997 11.0968L26.1942 10.8457L26.5806 10.348L26.976 9.87533L27.1719 9.6409L27.3729 9.41791L27.7717 8.97681C28.8458 7.83684 29.9489 6.90461 31.0192 6.16703C31.9949 5.49446 33.0168 4.93474 34.0724 4.49471C34.306 4.38679 34.5388 4.30734 34.7619 4.22419C34.9851 4.14141 35.1997 4.05838 35.4106 3.99918L36.0139 3.81264L36.57 3.67279C36.9252 3.57571 37.2305 3.52627 37.4992 3.47255C37.635 3.44718 37.7534 3.4199 37.8752 3.40132L38.2158 3.35498L38.8401 3.27005C39.5394 3.17404 40.0555 2.38952 39.9952 1.50017Z" fill="#6DBA31"/>
<path id="Vector_5" d="M7.80468 12.1272C7.60478 12.1272 7.40165 12.0809 7.20471 11.9833L5.04899 10.9143C4.21992 10.5032 3.81662 9.33663 4.14828 8.30876C4.47995 7.28078 5.4209 6.78077 6.24987 7.19208L8.40559 8.26111C9.23466 8.67219 9.63796 9.83877 9.3063 10.8666C9.0535 11.6503 8.44641 12.1272 7.80468 12.1272ZM6.98531 31.7419C7.12755 30.6491 6.52825 29.6202 5.64676 29.4437L2.60061 28.8342C1.71855 28.6576 0.889106 29.4009 0.746869 30.4939C0.604632 31.5867 1.20393 32.6156 2.08542 32.792L5.13157 33.4015C5.21882 33.4189 5.30549 33.4274 5.39112 33.4274C6.17052 33.4274 6.85716 32.7266 6.98531 31.7419ZM6.56859 50.1054C6.61759 49 5.93457 48.0546 5.043 47.994L1.70561 47.7665C0.814229 47.705 0.0514778 48.5524 0.00247976 49.6579C-0.0465183 50.7632 0.636504 51.7086 1.52808 51.7693L4.86546 51.9968C4.89572 51.9989 4.92568 51.9999 4.95565 51.9999C5.80793 52 6.52121 51.1734 6.56859 50.1054ZM28.5999 10.1953C29.188 9.36223 29.1199 8.09585 28.4478 7.36689L26.7231 5.49599C26.0512 4.76691 25.0296 4.85148 24.4417 5.68461C23.8537 6.51773 23.9218 7.7841 24.5939 8.51306L26.3185 10.384C26.6128 10.7041 26.991 10.8805 27.3826 10.88C27.8326 10.88 28.2803 10.6482 28.5999 10.1953ZM20.6668 26.9251C20.8831 25.8511 20.3563 24.7629 19.49 24.4945L16.6595 23.6179C15.793 23.3496 14.9155 24.0028 14.699 25.0769C14.4827 26.1508 15.0095 27.2391 15.8758 27.5075L18.7063 28.3841C18.8379 28.4248 18.9697 28.4444 19.0993 28.4444C19.8239 28.4444 20.4832 27.8361 20.6668 26.9251ZM17.3237 50.0989C17.3698 48.9933 16.6842 48.0507 15.7924 47.9935L12.2394 47.7661C11.3479 47.7083 10.5875 48.559 10.5413 49.6645C10.4953 50.7701 11.1809 51.7127 12.0726 51.7698L15.6256 51.9973C15.654 51.9992 15.6822 52 15.7104 52C16.5651 52 17.2792 51.1692 17.3237 50.0989Z" fill="#50891D"/>
<path id="Vector_6" d="M23.19 22C22.7023 22 22.245 21.6895 22.0705 21.1908C21.8482 20.5554 22.1692 19.8552 22.7875 19.6268L32.4075 16.0725C33.0259 15.8439 33.7071 16.174 33.9295 16.8092C34.1518 17.4446 33.8308 18.1448 33.2125 18.3732L23.5925 21.9275C23.4634 21.9754 23.3272 21.9999 23.19 22Z" fill="#FFB636"/>
<path id="Vector_7" d="M4.28933 18.9807L4.24566 18.9719C4.20448 18.9641 4.16351 18.9546 4.12281 18.9436C3.98158 18.9067 3.84208 18.8602 3.70495 18.8044L3.57309 18.7503L3.43678 18.6853C3.33912 18.642 3.24796 18.5857 3.14445 18.5294C2.94272 18.4137 2.73755 18.2682 2.53396 18.0961C2.12631 17.7525 1.74069 17.2923 1.43656 16.7274C1.28185 16.4467 1.15659 16.1338 1.03495 15.8121C0.915458 15.4891 0.798099 15.1582 0.695607 14.8176C0.487261 14.1434 0.323369 13.4494 0.205541 12.7424C0.0969941 12.0962 0.030897 11.4402 0.00789838 10.7808C0.00313242 10.6361 0.000499122 10.4914 0 10.3467L0.00538947 9.94688L0.0211861 9.58806L0.0438587 9.27734C0.0610491 9.08745 0.0795404 8.93497 0.0945007 8.82944L0.12089 8.66533C0.140222 8.54521 0.18086 8.4319 0.239867 8.33359C0.298875 8.23529 0.374778 8.15445 0.462092 8.09691C0.549406 8.03937 0.64595 8.00658 0.744748 8.00089C0.843545 7.99521 0.942129 8.01677 1.03338 8.06403L1.15798 8.1286C1.23697 8.17221 1.3494 8.23838 1.48618 8.32688L1.70687 8.47718L1.95589 8.66142L2.22657 8.87927C2.32318 8.96068 2.4186 9.04424 2.51277 9.12992C2.94151 9.52198 3.34388 9.95646 3.71591 10.4291C4.12347 10.9451 4.49659 11.5013 4.83161 12.092C5.0024 12.3876 5.15842 12.6931 5.30802 12.9963C5.45549 13.3009 5.59496 13.6044 5.69652 13.9202C5.90495 14.5482 5.99759 15.2015 5.99991 15.8121C6.0014 16.1173 5.98411 16.4093 5.9489 16.6812C5.92873 16.8189 5.91545 16.9441 5.88989 17.0685L5.85728 17.2448L5.81983 17.4105C5.78057 17.5825 5.73376 17.7517 5.67961 17.9174C5.65963 17.9784 5.64291 18.0261 5.6299 18.0594L5.61132 18.1092C5.37325 18.7481 4.824 19.0871 4.28933 18.9807Z" fill="#B1E87E"/>
</g>
</svg>
