<svg width="45" height="70" viewBox="0 0 45 70" fill="none" xmlns="http://www.w3.org/2000/svg">
<g id="Group 26">
<path id="Rectangle 1" d="M0 10C0 4.47718 4.47715 3.05176e-05 10 3.05176e-05H35C40.5228 3.05176e-05 45 4.47718 45 10V65C45 67.7615 42.7614 70 40 70H5C2.23858 70 0 67.7615 0 65V10Z" fill="#3293B1"/>
<path id="Rectangle 14" d="M8.30028 12.9276C8.12968 11.9166 8.75117 10.9404 9.73932 10.6672L15.0038 9.21128C20.2364 7.76425 25.7636 7.76425 30.9962 9.21129L36.2607 10.6672C37.2488 10.9404 37.8703 11.9166 37.6997 12.9276L36.1542 22.0864C36.0672 22.6019 35.5979 22.9633 35.0773 22.9159L26.0869 22.0962C24.0332 21.909 21.9668 21.909 19.9131 22.0962L10.9227 22.9159C10.4021 22.9633 9.93281 22.6019 9.84583 22.0864L8.30028 12.9276Z" fill="#46474B"/>
<path id="Rectangle 17" d="M37.4974 58.1004C37.7706 59.2134 37.0545 60.3279 35.9286 60.542L28.6033 61.9347C24.9009 62.6386 21.0991 62.6386 17.3967 61.9347L10.0714 60.542C8.94553 60.3279 8.22943 59.2134 8.50263 58.1004L9.8007 52.812C9.91606 52.342 10.3514 52.022 10.8344 52.0523L23 52.8148L35.1656 52.0523C35.6486 52.022 36.0839 52.342 36.1993 52.812L37.4974 58.1004Z" fill="#46474B"/>
<path id="Rectangle 15" d="M36.0698 28.0216L36.6019 22.6299C36.6099 22.5483 36.628 22.4679 36.6557 22.3907L38.1601 18.1933L39.6302 14L40.9189 27.1904C40.9656 27.6691 40.6649 28.1133 40.2031 28.2478L37.3445 29.0799C36.6648 29.2778 36.0003 28.7261 36.0698 28.0216Z" fill="#46474B"/>
<path id="Rectangle 16" d="M10.1017 27.9322L9.53967 22.4704C9.53115 22.3876 9.51234 22.3062 9.48366 22.2281L7.97092 18.1074L6.49122 13.9875L5.23232 26.9557C5.18751 27.4172 5.46588 27.849 5.90475 27.9987L8.78403 28.981C9.47429 29.2165 10.1763 28.6577 10.1017 27.9322Z" fill="#46474B"/>
<g id="Group 23">
<path id="Rectangle 18" d="M0 65H2C4.76142 65 7 67.2386 7 70H5C2.23858 70 0 67.7614 0 65Z" fill="#FF5454"/>
<path id="Rectangle 19" d="M45 65H43C40.2386 65 38 67.2386 38 70H40C42.7614 70 45 67.7614 45 65Z" fill="#FF5454"/>
<circle id="Ellipse 3" cx="3.5" cy="67.5" r="1.5" fill="#FFAE81"/>
<path id="Ellipse 5" d="M43 67.5C43 68.3284 42.3284 69 41.5 69C40.6716 69 40 68.3284 40 67.5C40 66.6716 40.6716 66 41.5 66C42.3284 66 43 66.6716 43 67.5Z" fill="#FFAE81"/>
</g>
<path id="Vector 2" d="M37.5771 51.1914L37.8669 50.0326C37.9498 49.7009 38.1964 49.4345 38.5208 49.3264L41.0029 48.499C41.6988 48.2671 42.3994 48.8385 42.312 49.5669L41.4762 56.5316C41.3522 57.565 39.9286 57.7449 39.5513 56.7749L37.6153 51.7964C37.5403 51.6036 37.527 51.3922 37.5771 51.1914Z" fill="#46474B"/>
<path id="Vector 3" d="M8.92286 51.1914L8.63314 50.0326C8.55022 49.7009 8.30358 49.4345 7.97922 49.3264L5.49713 48.499C4.80118 48.2671 4.10062 48.8385 4.18802 49.5669L5.02379 56.5316C5.1478 57.565 6.57142 57.7449 6.94867 56.7749L8.88472 51.7964C8.95972 51.6036 8.97305 51.3922 8.92286 51.1914Z" fill="#46474B"/>
<path id="Rectangle 20" d="M5 30.844C5 30.1742 5.64574 29.6937 6.28735 29.8862L9.28735 30.7862C9.71033 30.9131 10 31.3024 10 31.744V47.156C10 47.8258 9.35426 48.3063 8.71265 48.1138L5.71265 47.2138C5.28967 47.0869 5 46.6976 5 46.256V30.844Z" fill="#46474B"/>
<path id="Rectangle 21" d="M42 31.344C42 30.6742 41.3543 30.1937 40.7127 30.3862L37.7127 31.2862C37.2897 31.4131 37 31.8024 37 32.244V47.656C37 48.3258 37.6457 48.8063 38.2873 48.6138L41.2873 47.7138C41.7103 47.5869 42 47.1976 42 46.756V31.344Z" fill="#46474B"/>
<rect id="Rectangle 23" x="13" y="24" width="2" height="27" rx="1" fill="#46474B"/>
<rect id="Rectangle 26" x="31" y="24" width="2" height="27" rx="1" fill="#46474B"/>
<g id="Group 24">
<g id="Rectangle 27">
<rect x="13" y="27" width="2" height="1" fill="#2D2D2F"/>
<rect x="13" y="27" width="2" height="1" fill="#656566"/>
</g>
<g id="Rectangle 28">
<rect x="13" y="29" width="2" height="1" fill="#2D2D2F"/>
<rect x="13" y="29" width="2" height="1" fill="#656566"/>
</g>
<g id="Rectangle 29">
<rect x="13" y="31" width="2" height="1" fill="#2D2D2F"/>
<rect x="13" y="31" width="2" height="1" fill="#656566"/>
</g>
<g id="Rectangle 30">
<rect x="13" y="33" width="2" height="1" fill="#2D2D2F"/>
<rect x="13" y="33" width="2" height="1" fill="#656566"/>
</g>
<g id="Rectangle 31">
<rect x="13" y="35" width="2" height="1" fill="#2D2D2F"/>
<rect x="13" y="35" width="2" height="1" fill="#656566"/>
</g>
<g id="Rectangle 32">
<rect x="13" y="37" width="2" height="1" fill="#2D2D2F"/>
<rect x="13" y="37" width="2" height="1" fill="#656566"/>
</g>
<g id="Rectangle 33">
<rect x="13" y="39" width="2" height="1" fill="#2D2D2F"/>
<rect x="13" y="39" width="2" height="1" fill="#656566"/>
</g>
<g id="Rectangle 34">
<rect x="13" y="41" width="2" height="1" fill="#2D2D2F"/>
<rect x="13" y="41" width="2" height="1" fill="#656566"/>
</g>
<g id="Rectangle 35">
<rect x="13" y="43" width="2" height="1" fill="#2D2D2F"/>
<rect x="13" y="43" width="2" height="1" fill="#656566"/>
</g>
<g id="Rectangle 36">
<rect x="13" y="45" width="2" height="1" fill="#2D2D2F"/>
<rect x="13" y="45" width="2" height="1" fill="#656566"/>
</g>
<g id="Rectangle 37">
<rect x="13" y="47" width="2" height="1" fill="#2D2D2F"/>
<rect x="13" y="47" width="2" height="1" fill="#656566"/>
</g>
</g>
<g id="Group 25">
<g id="Rectangle 27_2">
<rect x="31" y="27" width="2" height="1" fill="#2D2D2F"/>
<rect x="31" y="27" width="2" height="1" fill="#656566"/>
</g>
<g id="Rectangle 28_2">
<rect x="31" y="29" width="2" height="1" fill="#2D2D2F"/>
<rect x="31" y="29" width="2" height="1" fill="#656566"/>
</g>
<g id="Rectangle 29_2">
<rect x="31" y="31" width="2" height="1" fill="#2D2D2F"/>
<rect x="31" y="31" width="2" height="1" fill="#656566"/>
</g>
<g id="Rectangle 30_2">
<rect x="31" y="33" width="2" height="1" fill="#2D2D2F"/>
<rect x="31" y="33" width="2" height="1" fill="#656566"/>
</g>
<g id="Rectangle 31_2">
<rect x="31" y="35" width="2" height="1" fill="#2D2D2F"/>
<rect x="31" y="35" width="2" height="1" fill="#656566"/>
</g>
<g id="Rectangle 32_2">
<rect x="31" y="37" width="2" height="1" fill="#2D2D2F"/>
<rect x="31" y="37" width="2" height="1" fill="#656566"/>
</g>
<g id="Rectangle 33_2">
<rect x="31" y="39" width="2" height="1" fill="#2D2D2F"/>
<rect x="31" y="39" width="2" height="1" fill="#656566"/>
</g>
<g id="Rectangle 34_2">
<rect x="31" y="41" width="2" height="1" fill="#2D2D2F"/>
<rect x="31" y="41" width="2" height="1" fill="#656566"/>
</g>
<g id="Rectangle 35_2">
<rect x="31" y="43" width="2" height="1" fill="#2D2D2F"/>
<rect x="31" y="43" width="2" height="1" fill="#656566"/>
</g>
<g id="Rectangle 36_2">
<rect x="31" y="45" width="2" height="1" fill="#2D2D2F"/>
<rect x="31" y="45" width="2" height="1" fill="#656566"/>
</g>
<g id="Rectangle 37_2">
<rect x="31" y="47" width="2" height="1" fill="#2D2D2F"/>
<rect x="31" y="47" width="2" height="1" fill="#656566"/>
</g>
</g>
<path id="Ellipse 7" d="M9 5.5C9 6.88071 7.88071 8 6.5 8C5.11929 8 4 6.88071 4 5.5C4 4.11929 5.11929 3 6.5 3C7.88071 3 9 4.11929 9 5.5Z" fill="#FFF59B"/>
<path id="Ellipse 8" d="M41 5.5C41 6.88071 39.8807 8 38.5 8C37.1193 8 36 6.88071 36 5.5C36 4.11929 37.1193 3 38.5 3C39.8807 3 41 4.11929 41 5.5Z" fill="#FFF59B"/>
</g>
</svg>
