<svg width="40" height="60" viewBox="0 0 40 60" fill="none" xmlns="http://www.w3.org/2000/svg">
<g id="Group 27">
<path id="Ellipse 6" d="M40 51C40 55.6944 29.6732 60 20.7792 60C10.9091 60 0 55.6944 0 51C0 42 10.8463 38 19.7403 38C28.6342 38 40 41.5 40 51Z" fill="#77B255"/>
<path id="Vector" d="M20.5 53C26.299 53 31 51.2091 31 49C31 46.7909 26.299 45 20.5 45C14.701 45 10 46.7909 10 49C10 51.2091 14.701 53 20.5 53Z" fill="#292F33"/>
<path id="Vector_2" d="M15 0V48.428C15 49.458 17.24 50 20 50C22.76 50 25 49.458 25 48.428V0H15Z" fill="#DDD1C0"/>
<rect id="Rectangle 36" x="15" y="16" width="10" height="3" fill="#606060"/>
<rect id="Rectangle 40" x="15" y="10" width="10" height="3" fill="#606060"/>
<rect id="Rectangle 41" x="15" y="4" width="10" height="3" fill="#606060"/>
<rect id="Rectangle 37" x="15" y="22" width="10" height="3" fill="#606060"/>
<rect id="Rectangle 38" x="15" y="28" width="10" height="3" fill="#606060"/>
<rect id="Rectangle 39" x="15" y="35" width="10" height="3" fill="#606060"/>
</g>
</svg>
