<svg width="45" height="70" viewBox="0 0 45 70" fill="none" xmlns="http://www.w3.org/2000/svg">
<g id="Group 21">
<path id="Rectangle 1" d="M0 12C0 5.37261 5.37258 3.05176e-05 12 3.05176e-05H33C39.6274 3.05176e-05 45 5.37261 45 12V65C45 67.7615 42.7614 70 40 70H5C2.23858 70 0 67.7615 0 65V12Z" fill="#32B165"/>
<path id="Rectangle 13" d="M33 2.34698C37.2239 1.05078 41.6988 3.42412 42.995 7.64799L41.083 8.23473C37.9151 9.20688 34.5589 7.42688 33.5867 4.25898L33 2.34698Z" fill="#FFEE54"/>
<path id="Rectangle 12" d="M1.99999 7.648C3.29617 3.42413 7.77105 1.05076 11.9949 2.34694L11.4082 4.25894C10.4361 7.42684 7.07989 9.20687 3.91199 8.23473L1.99999 7.648Z" fill="#FFEE54"/>
<path id="Rectangle 18" d="M3.00005 6.736C3.97218 3.56809 7.32835 1.78807 10.4963 2.7602C9.52412 5.92811 6.16796 7.70813 3.00005 6.736Z" fill="#FFF59B"/>
<path id="Rectangle 19" d="M41.4962 6.736C40.524 3.56809 37.1679 1.78807 34 2.7602C34.9721 5.92811 38.3283 7.70813 41.4962 6.736Z" fill="#FFF59B"/>
<path id="Rectangle 14" d="M8.14115 18.4115C8.0566 17.566 8.51549 16.7594 9.28545 16.4001L10.3134 15.9204C18.3549 12.1677 27.6451 12.1677 35.6866 15.9204L36.7145 16.4001C37.4845 16.7594 37.9434 17.566 37.8589 18.4115L36.1049 35.9508C36.0479 36.521 35.5243 36.9268 34.9578 36.8397L28.1699 35.7954C24.7435 35.2682 21.2565 35.2682 17.8301 35.7954L11.0422 36.8397C10.4757 36.9268 9.9521 36.521 9.89508 35.9508L8.14115 18.4115Z" fill="#46474B"/>
<path id="Rectangle 17" d="M37.6386 60.4966C37.8409 61.5453 37.1833 62.568 36.1452 62.8192L30.0556 64.2927C25.4188 65.4147 20.5812 65.4147 15.9444 64.2927L9.85482 62.8192C8.81666 62.568 8.15911 61.5453 8.36138 60.4966L9.83055 52.8786C9.92702 52.3784 10.3841 52.0306 10.892 52.0712L20.2963 52.8214C22.0959 52.9649 23.9041 52.9649 25.7037 52.8214L35.108 52.0712C35.6159 52.0306 36.073 52.3784 36.1694 52.8786L37.6386 60.4966Z" fill="#46474B"/>
<path id="Rectangle 15" d="M37.7528 47.4939L37.7528 36.8025C37.7528 36.7522 37.7566 36.702 37.7642 36.6522L38.8879 29.2608L39.958 22L42.663 46.1546C42.7124 46.5951 42.4658 47.0155 42.0573 47.1875L39.1409 48.4155C38.4818 48.6931 37.7528 48.2091 37.7528 47.4939Z" fill="#46474B"/>
<path id="Rectangle 16" d="M8.69634 47.8511L8.69637 36.8025C8.69637 36.7522 8.69257 36.702 8.68501 36.6522L7.56134 29.2609L6.49122 22L3.77928 46.2162C3.7333 46.6268 3.94452 47.0233 4.31087 47.2143L7.23415 48.7379C7.8999 49.0849 8.69634 48.6019 8.69634 47.8511Z" fill="#46474B"/>
<g id="Group 23">
<path id="Rectangle 18_2" d="M0 65H6C8.76142 65 11 67.2386 11 70H5C2.23858 70 0 67.7614 0 65Z" fill="#FF5454"/>
<path id="Rectangle 19_2" d="M45 65H39C36.2386 65 34 67.2386 34 70H40C42.7614 70 45 67.7614 45 65Z" fill="#FF5454"/>
<circle id="Ellipse 3" cx="3.5" cy="67.5" r="1.5" fill="#FFAE81"/>
<path id="Ellipse 4" d="M9 67.5C9 68.3284 8.32843 69 7.5 69C6.67157 69 6 68.3284 6 67.5C6 66.6716 6.67157 66 7.5 66C8.32843 66 9 66.6716 9 67.5Z" fill="#FFAE81"/>
<path id="Ellipse 5" d="M43 67.5C43 68.3284 42.3284 69 41.5 69C40.6716 69 40 68.3284 40 67.5C40 66.6716 40.6716 66 41.5 66C42.3284 66 43 66.6716 43 67.5Z" fill="#FFAE81"/>
<path id="Ellipse 6" d="M39 67.5C39 68.3284 38.3284 69 37.5 69C36.6716 69 36 68.3284 36 67.5C36 66.6716 36.6716 66 37.5 66C38.3284 66 39 66.6716 39 67.5Z" fill="#FFAE81"/>
</g>
<path id="Vector 2" d="M37.5771 51.1914L37.8669 50.0326C37.9498 49.7009 38.1964 49.4345 38.5208 49.3264L41.0029 48.499C41.6988 48.2671 42.3994 48.8385 42.312 49.5669L41.4762 56.5316C41.3522 57.565 39.9286 57.7449 39.5513 56.7749L37.6153 51.7964C37.5403 51.6036 37.527 51.3922 37.5771 51.1914Z" fill="#46474B"/>
<path id="Vector 3" d="M7.92286 51.1914L7.63314 50.0326C7.55022 49.7009 7.30358 49.4345 6.97922 49.3264L4.49713 48.499C3.80118 48.2671 3.10062 48.8385 3.18802 49.5669L4.02379 56.5316C4.1478 57.565 5.57142 57.7449 5.94867 56.7749L7.88472 51.7964C7.95972 51.6036 7.97305 51.3922 7.92286 51.1914Z" fill="#46474B"/>
</g>
</svg>
