<svg width="45" height="70" viewBox="0 0 45 70" fill="none" xmlns="http://www.w3.org/2000/svg">
<g id="Group 28">
<path id="Rectangle 1" d="M0 12C0 5.37261 5.37258 3.05176e-05 12 3.05176e-05H33C39.6274 3.05176e-05 45 5.37261 45 12V68C45 69.1046 44.1046 70 43 70H2C0.89543 70 0 69.1046 0 68V12Z" fill="#2B252F"/>
<path id="Rectangle 13" d="M33 2.34698C37.2239 1.05078 41.6988 3.42412 42.995 7.64799L41.083 8.23473C37.9151 9.20688 34.5589 7.42688 33.5867 4.25898L33 2.34698Z" fill="#FFEE54"/>
<path id="Rectangle 12" d="M1.99999 7.648C3.29617 3.42413 7.77105 1.05076 11.9949 2.34694L11.4082 4.25894C10.4361 7.42684 7.07989 9.20687 3.91199 8.23473L1.99999 7.648Z" fill="#FFEE54"/>
<path id="Rectangle 18" d="M3.00005 6.736C3.97218 3.56809 7.32835 1.78807 10.4963 2.7602C9.52412 5.92811 6.16796 7.70813 3.00005 6.736Z" fill="#FFF59B"/>
<path id="Rectangle 19" d="M41.4962 6.736C40.524 3.56809 37.1679 1.78807 34 2.7602C34.9721 5.92811 38.3283 7.70813 41.4962 6.736Z" fill="#FFF59B"/>
<path id="Rectangle 14" d="M8.27585 20.1442C8.1181 19.151 8.7224 18.1951 9.68727 17.9116L14.5427 16.485C20.0642 14.8626 25.9358 14.8626 31.4573 16.485L36.3127 17.9116C37.2776 18.1951 37.8819 19.151 37.7241 20.1442L36.1476 30.0708C36.0647 30.5929 35.5897 30.9603 35.0635 30.9093L26.2781 30.0583C24.0978 29.8471 21.9022 29.8471 19.7219 30.0583L10.9365 30.9093C10.4103 30.9603 9.93534 30.5929 9.85242 30.0708L8.27585 20.1442Z" fill="#46474B"/>
<path id="Rectangle 17" d="M36.5525 59.0231C37.2364 60.2896 36.3988 61.8421 34.9649 61.966L25.583 62.7768C23.8642 62.9253 22.1358 62.9253 20.417 62.7768L11.0351 61.966C9.60117 61.8421 8.76363 60.2896 9.44751 59.0231L9.70733 58.542C9.88679 58.2097 10.2382 58.0068 10.6157 58.0175L23 58.3704L35.3843 58.0175C35.7618 58.0068 36.1132 58.2097 36.2927 58.542L36.5525 59.0231Z" fill="#46474B"/>
<path id="Rectangle 16" d="M9.48301 55.5925L8.69636 36.727L7.56133 29.2609L6.49122 22L5.10556 58.2394C5.06982 59.174 6.22239 59.6418 6.84812 58.9465L9.22717 56.3031C9.40207 56.1088 9.4939 55.8537 9.48301 55.5925Z" fill="#46474B"/>
<path id="Rectangle 20" d="M36.3262 55.5925L37.1128 36.727L38.2478 29.2609L39.318 22L40.7036 58.2394C40.7394 59.174 39.5868 59.6418 38.9611 58.9465L36.582 56.3031C36.4071 56.1088 36.3153 55.8537 36.3262 55.5925Z" fill="#46474B"/>
<rect id="Rectangle 38" x="11" y="32" width="24" height="10" rx="1" fill="#46474B"/>
<g id="Group 28_2">
<rect id="Rectangle 39" x="4" y="66" width="7" height="3" rx="1" fill="#FF5454"/>
<circle id="Ellipse 9" cx="5.5" cy="67.5" r="0.5" fill="#FF9E9E"/>
<circle id="Ellipse 10" cx="7.5" cy="67.5" r="0.5" fill="#FF9E9E"/>
<circle id="Ellipse 11" cx="9.5" cy="67.5" r="0.5" fill="#FF9E9E"/>
</g>
<g id="Group 29">
<rect id="Rectangle 39_2" x="34" y="66" width="7" height="3" rx="1" fill="#FF5454"/>
<circle id="Ellipse 9_2" cx="35.5" cy="67.5" r="0.5" fill="#FF9E9E"/>
<circle id="Ellipse 10_2" cx="37.5" cy="67.5" r="0.5" fill="#FF9E9E"/>
<circle id="Ellipse 11_2" cx="39.5" cy="67.5" r="0.5" fill="#FF9E9E"/>
</g>
</g>
</svg>
