<svg width="40" height="60" viewBox="0 0 40 60" fill="none" xmlns="http://www.w3.org/2000/svg">
<g id="Group 30">
<path id="Vector" d="M8.38142 11.0954C8.38142 11.0954 9.27765 7.54907 11.391 5.32409C13.5043 3.0991 33.096 12.6306 33.096 12.6306C33.096 12.6306 36.5186 14.2386 38.5434 18.4991C39.9044 21.3653 40.6641 25.6015 39.222 30.7171C35.7846 42.901 26.8666 41.4922 24.5431 40.7975C23.4514 40.472 20.7922 39.5441 20.7922 39.5441C20.7922 39.5441 14.7177 46.1511 7.40774 41.0841C1.84227 37.2268 2.53196 31.4603 2.53196 31.4603C2.53196 31.4603 -1.21524 26.5246 0.407566 19.6504C2.3623 11.3723 8.38142 11.0954 8.38142 11.0954Z" fill="#C63F88"/>
<path id="Vector_2" d="M21.0998 25.5402C26.2924 24.4114 27.9125 21.5178 29.3211 18.8362C30.8732 15.8786 30.4578 13.3991 31.5378 13.3301C32.6179 13.2611 33.4789 15.8047 32.2931 20.246C30.6164 26.5261 27.1685 27.4479 27.1005 29.1386C27.0477 30.4794 30.7712 30.5731 34.1322 28.4337C39 25.3282 38.5 18.8362 38.5 18.8362C38.5 18.8362 37.6767 15.6112 36 13.9895C34.3233 12.3677 33.5355 11.6344 33.5355 11.6344C33.5355 11.6344 31.534 1.82498 22.4518 0.198289C13.3695 -1.4284 10 7.48798 10 7.48798C10 7.48798 9.95939 9.51973 11.5266 12.6252C12.7766 15.1047 14.0681 15.0258 13.9586 16.4356C13.8869 17.3525 11.6323 17.6335 9.25321 16.2927C7.08555 15.0702 6.5493 13.3991 5.9564 13.3991C5.3635 13.3991 0.446614 16.9729 2.49721 24.5494C4.12106 30.5484 9.48734 31.6723 10.4466 31.8892C13.26 32.5251 14.8801 30.1245 12.8786 28.2168C10.8771 26.3092 8.66031 25.1803 9.14747 23.2776C9.67239 21.2171 11.5455 23.3663 13.7962 24.6381C16.0205 25.8951 18.7131 26.0627 21.0998 25.5402Z" fill="#E389B9"/>
<path id="Vector_3" d="M11 33.4736C11 33.4736 12.2118 33.3773 12.7111 33.1795C13.2105 32.9816 13.8862 32.3933 13.8862 32.3933C13.8862 32.3933 18.5679 39.1595 19.0526 39.7276C19.5263 40.2805 20.0845 31.8506 20.0845 31.8506C20.0845 31.8506 21.153 32.0788 22.1518 31.8607C23.4663 31.5716 24.3623 30.9934 24.3623 30.9934C24.3623 30.9934 23.7234 36.1822 23.4737 38.1502C23.3158 39.4131 23.5 43.4962 23.5 43.4962L19.8384 46.8591L17.5 45.2867C17.5 45.2867 17.2277 43.4962 16.8421 42.8521C15.645 40.8536 11 33.4736 11 33.4736ZM22.9376 45.0432L25.541 40.7116C25.541 40.7116 26.4663 40.808 27.1457 40.808C27.8213 40.808 29 40.6102 29 40.6102C29 40.6102 26.8629 44.5969 25.7209 46.5649C24.5789 48.5329 23.0845 50.9979 23.0845 50.9979L21.6597 45.2867L22.9376 45.0432Z" fill="#6D4B41"/>
<path id="Vector_4" d="M21.284 42.0057C20.2142 42.1318 17.4179 44.7356 17.4179 44.7356C17.4179 44.7356 17.5618 49.1576 17.4548 51.6547C17.3478 54.1518 16.5989 58.2296 17.2888 59.2624C17.8864 60.1546 22.9108 60.3243 23.6597 59.2866C24.4123 58.249 23.6818 53.9627 23.6818 51.1844C23.6818 48.4061 23.4679 43.2761 23.4679 43.2761C23.4679 43.2761 22.5013 41.8651 21.284 42.0057Z" fill="#865B50"/>
</g>
</svg>
