<svg width="45" height="70" viewBox="0 0 45 70" fill="none" xmlns="http://www.w3.org/2000/svg">
<g id="Group 32">
<path id="Rectangle 1" d="M0 12C0 5.37261 5.37258 3.05176e-05 12 3.05176e-05H33C39.6274 3.05176e-05 45 5.37261 45 12V68C45 69.1046 44.1046 70 43 70H2C0.89543 70 0 69.1046 0 68V12Z" fill="#2B252F"/>
<path id="Rectangle 13" d="M33 2.34698C37.2239 1.05078 41.6988 3.42412 42.995 7.64799L41.083 8.23473C37.9151 9.20688 34.5589 7.42688 33.5867 4.25898L33 2.34698Z" fill="#FFEE54"/>
<path id="Rectangle 12" d="M1.99999 7.648C3.29617 3.42413 7.77105 1.05076 11.9949 2.34694L11.4082 4.25894C10.4361 7.42684 7.07989 9.20687 3.91199 8.23473L1.99999 7.648Z" fill="#FFEE54"/>
<path id="Rectangle 18" d="M3.00005 6.736C3.97218 3.56809 7.32835 1.78807 10.4963 2.7602C9.52412 5.92811 6.16796 7.70813 3.00005 6.736Z" fill="#FFF59B"/>
<path id="Rectangle 19" d="M41.4962 6.736C40.524 3.56809 37.1679 1.78807 34 2.7602C34.9721 5.92811 38.3283 7.70813 41.4962 6.736Z" fill="#FFF59B"/>
<path id="Rectangle 14" d="M8.27585 20.1442C8.1181 19.151 8.7224 18.1951 9.68727 17.9116L14.5427 16.485C20.0642 14.8626 25.9358 14.8626 31.4573 16.485L36.3127 17.9116C37.2776 18.1951 37.8819 19.151 37.7241 20.1442L36.1476 30.0708C36.0647 30.5929 35.5897 30.9603 35.0635 30.9093L26.2781 30.0583C24.0978 29.8471 21.9022 29.8471 19.7219 30.0583L10.9365 30.9093C10.4103 30.9603 9.93534 30.5929 9.85242 30.0708L8.27585 20.1442Z" fill="#46474B"/>
<path id="Rectangle 17" d="M37.428 58.289C37.735 59.4259 36.9982 60.5806 35.8378 60.7811L28.1094 62.1169C24.7282 62.7013 21.2718 62.7013 17.8906 62.1169L10.1622 60.7811C9.00182 60.5806 8.26501 59.4259 8.57197 58.289L9.78835 53.7839C9.91168 53.3271 10.3383 53.0193 10.8107 53.0462L23 53.7407L35.1893 53.0462C35.6617 53.0193 36.0883 53.3271 36.2117 53.7839L37.428 58.289Z" fill="#46474B"/>
<path id="Rectangle 16" d="M9.47773 50.8102L8.69639 34.6785L7.56136 28.2509L6.49125 22L5.10786 53.1474C5.06833 54.0374 6.13767 54.487 6.79611 53.8572L9.15814 51.5978C9.37494 51.3904 9.49187 51.1022 9.47773 50.8102Z" fill="#46474B"/>
<path id="Rectangle 20" d="M36.3315 50.8102L37.1128 34.6785L38.2478 28.2509L39.318 22L40.7013 53.1474C40.7409 54.0374 39.6715 54.487 39.0131 53.8572L36.6511 51.5978C36.4343 51.3904 36.3173 51.1022 36.3315 50.8102Z" fill="#46474B"/>
<g id="Group 28">
<rect id="Rectangle 39" x="4" y="66" width="9" height="3" rx="1" fill="#FF5454"/>
<circle id="Ellipse 9" cx="5.5" cy="67.5" r="0.5" fill="#FF9E9E"/>
<circle id="Ellipse 10" cx="7.5" cy="67.5" r="0.5" fill="#FF9E9E"/>
<circle id="Ellipse 11" cx="9.5" cy="67.5" r="0.5" fill="#FF9E9E"/>
<circle id="Ellipse 12" cx="11.5" cy="67.5" r="0.5" fill="#FF9E9E"/>
</g>
<g id="Group 29">
<rect id="Rectangle 39_2" x="32" y="66" width="9" height="3" rx="1" fill="#FF5454"/>
<circle id="Ellipse 9_2" cx="33.5" cy="67.5" r="0.5" fill="#FF9E9E"/>
<circle id="Ellipse 10_2" cx="35.5" cy="67.5" r="0.5" fill="#FF9E9E"/>
<circle id="Ellipse 11_2" cx="37.5" cy="67.5" r="0.5" fill="#FF9E9E"/>
<circle id="Ellipse 12_2" cx="39.5" cy="67.5" r="0.5" fill="#FF9E9E"/>
</g>
<rect id="Rectangle 49" x="13" y="34" width="20" height="4" rx="1" fill="#D9D9D9"/>
<path id="Rectangle 50" d="M13 35C13 34.4477 13.4477 34 14 34H17V38H14C13.4477 38 13 37.5523 13 37V35Z" fill="#1400FF" fill-opacity="0.6"/>
<path id="Rectangle 51" d="M29 34H32C32.5523 34 33 34.4477 33 35V37C33 37.5523 32.5523 38 32 38H29V34Z" fill="#FF0000" fill-opacity="0.6"/>
</g>
</svg>
