<svg width="45" height="70" viewBox="0 0 45 70" fill="none" xmlns="http://www.w3.org/2000/svg">
<g id="Group 8">
<rect id="Rectangle 1" x="0.25" y="0.25" width="44.5" height="69.5" rx="14.75" fill="#00DD66" stroke="black" stroke-width="0.5"/>
<path id="Rectangle 3" d="M4 13L12.9516 11.5L17.7258 11H22.5H27.2742L32.0484 11.5L41 13L38.6129 24L22.5 22.5L6.3871 24L4 13Z" fill="#562828"/>
<path id="Rectangle 4" d="M4 17L6 25.7262V46.3292L2 49L4 17Z" fill="#562828"/>
<path id="Rectangle 7" d="M41 17L39 25.7262V46.3292L43 49L41 17Z" fill="#562828"/>
<path id="Rectangle 6" d="M9.5 46L23 47L36 46L38.5 63L31 64.5L23 65.5L15 64.5L7 63L9.5 46Z" fill="#562828"/>
<circle id="Ellipse 1" cx="14" cy="5" r="2" fill="white"/>
<circle id="Ellipse 2" cx="31" cy="5" r="2" fill="white"/>
</g>
</svg>
